<?xml version="1.0" encoding="UTF-8"?>
<svg width="127.99999" height="135" version="1.1" viewBox="0 0 127.99999 146" xmlns="http://www.w3.org/2000/svg" xmlns:cc="http://creativecommons.org/ns#" xmlns:dc="http://purl.org/dc/elements/1.1/" xmlns:rdf="http://www.w3.org/1999/02/22-rdf-syntax-ns#" xmlns:xlink="http://www.w3.org/1999/xlink">
 <metadata>
  <rdf:RDF>
   <cc:Work rdf:about="">
    <dc:format>image/svg+xml</dc:format>
    <dc:type rdf:resource="http://purl.org/dc/dcmitype/StillImage"/>
    <dc:title/>
   </cc:Work>
  </rdf:RDF>
 </metadata>
 <defs>
  <linearGradient id="linearGradient5141" x1="40.605217" x2="17.594276" y1="12.89941" y2="36.913795" gradientTransform="matrix(1.0582895,0,0,1.0606257,-2.6705917,-10.886268)" gradientUnits="userSpaceOnUse">
   <stop style="stop-color:#3f3f3f" offset="0"/>
   <stop style="stop-color:#ffffff" offset="1"/>
  </linearGradient>
 </defs>
 <linearGradient id="a">
  <stop stop-color="#003dc7" offset="0"/>
  <stop stop-color="#4ca4ff" offset="1"/>
 </linearGradient>
 <linearGradient id="b" x1="63.271" x2="63.271" y1="34.585999" y2="71.584" gradientUnits="userSpaceOnUse" xlink:href="#a"/>
 <linearGradient id="c" x1="68.250999" x2="68.250999" y1="-3.418" y2="58.083" gradientUnits="userSpaceOnUse">
  <stop stop-color="#000051" offset="0"/>
  <stop stop-color="#58b1ff" offset="1"/>
 </linearGradient>
 <radialGradient id="d" cx="73.427002" cy="136.784" r="53.152" gradientUnits="userSpaceOnUse">
  <stop stop-color="#fff" offset="0"/>
  <stop stop-color="#006aca" offset="1"/>
 </radialGradient>
 <radialGradient id="e" cx="80.670998" cy="122.686" r="116.781" gradientUnits="userSpaceOnUse">
  <stop stop-color="#caffff" offset="0"/>
  <stop stop-color="#0090ff" offset="1"/>
 </radialGradient>
 <radialGradient id="f" cx="69.947998" cy="120.588" r="95.498001" gradientUnits="userSpaceOnUse">
  <stop stop-color="#fff" offset="0"/>
  <stop stop-color="#0095ff" offset="1"/>
 </radialGradient>
 <linearGradient id="g" x1="63.999001" x2="63.999001" y1="59.084" y2="145.082" gradientUnits="userSpaceOnUse" xlink:href="#a"/>
 <g transform="matrix(3.5057276,0,0,2.5919244,-7.2306176,73.814053)">
  <path d="m26.10326 27.335136c2.206618-0.947863 2.8828-3.913032 3.87803-6.354455 1.166196-1.489491 2.17447 1.945611 4.448957 1.627862 1.566242-0.217187 4.057193-3.437748 3.086796-5.534173-2.132641-2.272388-3.651416 0.662892-4.975648-1.227667-0.202171-2.036648 4.403922-3.505317 3.32435-4.991553-1.969566-1.7821361-5.638186-1.3173912-9.162486-2.9708758-1.572663-2.1640178 3.553628-1.2627692 2.425365-3.3759969-0.462063-0.8485376-3.529-2.9149418-7.006608-2.0255976-2.233317 0.902619 0.390763 3.6619405-3.099076 3.3759958-2.386408-0.3616013-6.441997-2.2564311-8.758258-1.3503992-1.7946168 1.4957089-2.6824939 3.5841679-2.8295908 4.3212763-0.3646666 2.2816214 3.9612768 0.7512263 4.5910678 1.3454754 1.863786 1.871069-2.1161386 4.190726-3.2411878 3.403076-0.4501625-1.103271-1.5404069-1.677762-3.0380456-1.289773-1.5202347 0.114701-4.0731258 5.629599-3.3120423 7.079256 1.2756869 1.810257 8.1828537 4.100772 9.8919607 3.841152 2.236405 0.07003 1.008219-1.123583 1.168844-2.653264 0.344294-1.946685 8.319425 0.816249 6.621014 2.135837-2.273712 0.511137-2.902273 1.460049-2.068161 2.433179 1.511872 1.560667 6.776459 2.949292 8.054719 2.210645z" style="fill-rule:evenodd;fill:url(#linearGradient5141);stroke-width:.52972847;stroke:#000000"/>
 </g>
 <radialGradient id="h" cx="-11.043" cy="-11.376" r="103.43" gradientUnits="userSpaceOnUse">
  <stop stop-color="#fff" offset="0"/>
  <stop stop-color="#8bceff" offset="1"/>
 </radialGradient>
 <g transform="translate(-2.388998,-2.513)">
  <path d="m48.859 36.605c-5.756 1.012-10.412 3.853-13.465 8.215l-0.096 0.137 8e-3 0.17c0.117 3.157 0.846 6.408 2.166 9.664l0.051 0.122c0.51 1.241 1.111 2.491 1.79 3.717 1e-3 1e-3 0.079 0.14 0.079 0.14 0.037 0.064 1.031 1.734 1.031 1.734 0.043 0.066 0.094 0.146 0.094 0.146l1.195 1.77c0.064 0.086 0.117 0.158 0.117 0.158l1.15 1.511 0.271 0.339c0.889 1.095 1.851 2.166 2.857 3.181 0 2e-3 0.377 0.373 0.377 0.373 0 2e-3 1.289 1.223 1.289 1.223l0.334 0.309c1e-3 0 1.661 1.416 1.661 1.416l0.367 0.289c1e-3 0 1.428 1.096 1.428 1.096l0.501 0.365c1e-3 0 1.865 1.283 1.865 1.283l2.137 1.299c0.036 0.021 0.494 0.285 0.494 0.285l2.133 1.133 0.271 0.131c1e-3 0 1.97 0.904 1.97 0.904l0.469 0.203c1e-3 0 2.161 0.844 2.161 0.844l0.398 0.139-4e-3 -2e-3 1.956 0.635c3e-3 0 0.372 0.109 0.372 0.109 2e-3 2e-3 2.179 0.564 2.179 0.564 3e-3 0 0.447 0.098 0.447 0.098l2.053 0.398c0.052 0.01 0.179 0.031 0.179 0.031 1e-3 0 2.187 0.285 2.187 0.285l0.431 0.041c1.451 0.131 2.902 0.176 4.314 0.131l0.374-0.012c2e-3 0 2.097-0.154 2.097-0.154 0.088-0.01 0.129-0.016 0.129-0.016l1.957-0.289c5e-3 -2e-3 0.284-0.051 0.284-0.051l1.986-0.451 0.202-0.059c2e-3 0 1.813-0.572 1.813-0.572 0.065-0.02 0.158-0.051 0.158-0.051 4e-3 -2e-3 1.82-0.75 1.82-0.75-3e-3 0 0.154-0.072 0.154-0.072 0.094-0.045 1.814-0.941 1.814-0.941l0.209-0.109 0.028-0.219c2.4-11.555-4.386-25.566-16.504-34.077-8.163-5.737-17.546-8.202-25.738-6.763zm0.173 0.981c7.933-1.395 17.044 1.011 24.997 6.598 10.226 7.181 16.562 18.346 16.562 28.468 0 1.486-0.159 2.947-0.44 4.373-0.324 0.168-1.429 0.744-1.429 0.744-0.1 0.047-0.236 0.111-0.236 0.111-2e-3 2e-3 -1.745 0.717-1.745 0.717-0.067 0.023-0.152 0.053-0.152 0.053-2e-3 0-1.744 0.549-1.744 0.549l-0.212 0.061-1.901 0.432-0.278 0.049c4e-3 0-1.891 0.279-1.891 0.279-0.062 8e-3 -0.113 0.016-0.113 0.016-7e-3 0-2.038 0.148-2.038 0.148l-0.364 0.012c-1.371 0.045-2.783 0-4.194-0.127-2e-3 0-0.418-0.039-0.418-0.039l-2.129-0.277-0.177-0.031-2.003-0.389c-3e-3 -2e-3 -0.436-0.096-0.436-0.096l-2.123-0.549-0.368-0.109-1.908-0.619-0.389-0.135-2.112-0.825-0.459-0.199-1.928-0.885-0.266-0.129c-1e-3 0-2.088-1.111-2.088-1.111-2e-3 0-0.447-0.254-0.447-0.254-0.037-0.021-2.129-1.295-2.129-1.295l-1.826-1.256-0.492-0.357-1.397-1.072-0.36-0.283-1.625-1.389-0.326-0.299-1.261-1.197-0.369-0.365c-0.984-0.994-1.924-2.039-2.792-3.106l-0.266-0.333-1.122-1.475c-0.062-0.084-0.116-0.156-0.116-0.156l-1.166-1.725c-0.041-0.066-0.091-0.146-0.091-0.146l-0.968-1.621c-0.039-0.069-0.113-0.199-0.113-0.199-0.658-1.191-1.244-2.407-1.738-3.609l-0.049-0.12c-1.254-3.09-1.94-6.168-2.072-9.156 2.898-4.062 7.28-6.723 12.707-7.677z" style="fill:url(#b)"/>
  <path d="m120.214 56.626-5.558-0.048-2.366 0.094 0.479 8.619z" style="fill:#ffffff"/>
  <path d="m82.396 29.821c-16.426-10.663-36.083-9.541-43.904 2.506-2.484 3.827-3.471 8.297-3.141 12.954 7.217-11.231 24.555-12.152 39.086-1.945 12.522 8.793 18.918 23.014 16.263 34.266 2.943-1.611 5.439-3.83 7.273-6.66 7.825-12.047 0.848-30.459-15.577-41.121z" style="fill:url(#c)"/>
  <path d="m19.898 80.158-3.252 11.545 11.188 12.652 10.904-7.891 13.312 8.186 0.141 15.479 14.225 2.832 8.206-10.895 0.486-3.291 7.53-0.254 7.648 11.756 10.621-5.654 9.384-11.068-2e-3 -2e-3 0.177-0.09-4.715-8.844 5.494 2.889 10.263-10.762 1.567-11.539-10.179-7.598-0.128-2.318 7.27-8.924-5.166-10.483-8.507-1.822-7.596-10.026 3.646-4.862-8.659-8.052-6.532 3.189-10.938-7.443-0.152-5.47-11.851-5.013-2.734 7.141-9.724-1.824-5.317-6.684-11.817 1.479-1.517 12.241-2.616 1.169-10.331-5.167-6.662 7.736-1.381 12.767 6.475 5.91-11.843 0.32-1.923 12.724 1.416 13.694 13.028 1.338 3.864 7.857zm78.076-9.217c-7.819 12.051-27.476 13.174-43.901 2.51-16.426-10.664-23.401-29.074-15.58-41.125 7.821-12.047 27.478-13.169 43.903-2.506s23.402 29.075 15.578 41.121z" style="fill:url(#d)"/>
  <path d="m112.163 67.471-0.599-10.769 7.63-0.301-5.086-10.321-8.376-1.794-7.479-9.872 3.59-4.787-8.525-7.929-6.432 3.143-10.771-7.33-0.148-5.385-11.67-4.934-2.691 7.029-9.572-1.794-5.235-6.583-11.069 1.495 5.084 8.825-9.723 4.339-10.17-5.086-6.133 7.478 9.424 7.181-2.545 11.219-13.312 0.746 1.497 13.764 13.761 1.345 6.881 13.311-9.723 9.277 11.816 12.711 11.518-7.928 14.061 8.227 0.148 15.557 16.155 2.992 2.094-14.209 13.911-0.451 8.077 11.816 11.219-5.682-7.18-13.463 7.328-9.123 10.771 5.385 1.495-10.621zm-14.693 3.281c-7.698 11.861-27.053 12.967-43.224 2.469-16.174-10.498-23.042-28.625-15.341-40.488 7.7-11.863 27.054-12.969 43.226-2.47 16.173 10.501 23.04 28.626 15.339 40.489z" style="fill:url(#e)"/>
  <path d="m112.163 67.471-0.599-10.769 7.63-0.301-5.086-10.321-8.376-1.794-7.479-9.872 3.59-4.787-8.525-7.929-6.432 3.143-10.771-7.33-0.148-5.385-11.67-4.934-2.691 7.029-9.572-1.794-5.235-6.583-11.069 1.495 5.084 8.825-9.723 4.339-10.17-5.086-6.133 7.478 9.424 7.181-2.545 11.219-13.312 0.746 1.497 13.764 13.761 1.345 6.881 13.311-9.723 9.277 11.816 12.711 11.518-7.928 14.061 8.227 0.148 15.557 16.155 2.992 2.094-14.209 13.911-0.451 8.077 11.816 11.219-5.682-7.18-13.463 7.328-9.123 10.771 5.385 1.495-10.621zm-14.693 3.281c-7.698 11.861-27.053 12.967-43.224 2.469-16.174-10.498-23.042-28.625-15.341-40.488 7.7-11.863 27.054-12.969 43.226-2.47 16.173 10.501 23.04 28.626 15.339 40.489z" style="fill:url(#f)"/>
  <path d="m46.446 4.521-12.204 1.528s-1.463 11.812-1.529 12.347c-0.38 0.17-1.818 0.812-2.143 0.957-0.406-0.203-10.469-5.234-10.469-5.234l-7.018 8.149-1.426 13.174s4.397 4.013 5.748 5.245c-1.987 0.054-11.021 0.297-11.021 0.297l-1.995 13.201 1.465 14.161s12.629 1.299 13.156 1.352c0.22 0.447 3.287 6.686 3.578 7.275-0.459 0.428-3.133 2.914-3.133 2.914l-3.363 11.943 11.668 13.195s10.486-7.586 11-7.959c0.535 0.328 12.35 7.592 12.794 7.865 5e-3 0.533 0.142 15.609 0.142 15.609l14.931 2.973 8.472-11.248s0.352-2.373 0.444-3.006c0.715-0.023 6.339-0.213 6.831-0.23 0.296 0.455 7.745 11.904 7.745 11.904l11.109-5.914 9.446-11.143-0.135 0.111 0.369-0.76s-2.877-5.398-3.95-7.41c1.567 0.824 4.39 2.307 4.39 2.307l10.635-11.15 1.629-11.992s-9.866-7.363-10.228-7.633c-0.019-0.344-0.089-1.604-0.104-1.893 0.236-0.291 7.351-9.023 7.351-9.023l-5.415-10.988s-8.214-1.76-8.562-1.834c-0.211-0.278-6.834-9.021-7.256-9.578 0.397-0.531 3.689-4.92 3.689-4.92l-9.24-8.592s-6.099 2.978-6.58 3.213c-0.449-0.306-10.089-6.866-10.486-7.136-0.014-0.464-0.154-5.536-0.154-5.536l-12.623-5.34s-2.504 6.539-2.771 7.235c-0.737-0.138-8.793-1.649-9.13-1.713-0.222-0.279-5.376-6.758-5.376-6.758zm-0.154 1.027c0.327 0.411 5.258 6.61 5.258 6.61l10.316 1.936s2.378-6.207 2.699-7.047c0.855 0.362 10.538 4.458 11.077 4.687 0.017 0.569 0.15 5.404 0.15 5.404l11.391 7.75s5.924-2.893 6.484-3.166c0.455 0.423 7.487 6.962 8.078 7.512-0.463 0.617-3.602 4.803-3.602 4.803l7.936 10.475s8.004 1.714 8.451 1.81c0.2 0.405 4.654 9.445 4.917 9.978-0.383 0.47-7.188 8.825-7.188 8.825l0.151 2.746s9.68 7.225 10.13 7.561c-0.074 0.547-1.465 10.783-1.506 11.088-0.213 0.223-9.401 9.857-9.891 10.369-0.589-0.309-6.293-3.479-6.293-3.479s4.611 9.232 4.976 9.916c-0.15 0.178-9.117 10.758-9.238 10.9-0.16 0.086-9.391 4.998-10.133 5.395-0.467-0.719-7.552-11.609-7.552-11.609l-8.229 0.277s-0.494 3.346-0.528 3.578c-0.147 0.195-7.584 10.068-7.94 10.543-0.573-0.115-12.782-2.545-13.519-2.691-7e-3 -0.771-0.139-15.35-0.139-15.35l-13.834-8.504s-10.12 7.322-10.807 7.818c-0.559-0.633-10.366-11.723-10.707-12.107 0.141-0.496 3.067-10.891 3.141-11.148 0.192-0.18 3.472-3.229 3.472-3.229l-4.149-8.439s-12.141-1.248-12.899-1.326c-0.079-0.758-1.356-13.103-1.368-13.225 0.018-0.12 1.736-11.477 1.852-12.247 0.779-0.021 12.664-0.342 12.664-0.342s-6.852-6.252-7.205-6.574c0.053-0.479 1.305-12.064 1.338-12.36 0.188-0.22 5.844-6.786 6.306-7.323 0.651 0.325 10.195 5.098 10.195 5.098l3.091-1.381s1.412-11.41 1.502-12.134c0.705-0.09 10.638-1.333 11.152-1.398z" style="fill:url(#g)"/>
  <path d="m53.429 74.479c-9.618-6.242-16.562-15.617-18.573-25.072-1.383-6.499-0.418-12.547 2.791-17.49 3.209-4.944 8.34-8.288 14.84-9.67 9.456-2.012 20.844 0.515 30.461 6.759 3.586 2.328 6.716 5.032 9.364 7.958 1.515-3.42 2.784-6.968 3.799-10.619-1.306-1.214-2.542-2.364-3.061-2.846-1.356 0.663-5.506 2.69-5.506 2.69-0.483 0.236-1.057 0.195-1.502-0.107l-10.771-7.33c-0.398-0.271-0.643-0.717-0.655-1.199 0 0-0.087-3.121-0.122-4.421-1.316-0.556-7.341-3.104-9.352-3.954-0.699 1.827-2.136 5.579-2.136 5.579-0.259 0.676-0.965 1.071-1.677 0.938l-9.572-1.795c-0.354-0.066-0.673-0.258-0.897-0.541 0 0-3.848-4.838-4.705-5.916-1.129 0.153-5.445 0.736-8.01 1.083 1.359 2.36 3.969 6.889 3.969 6.889 0.133 0.23 0.201 0.488 0.201 0.749 0 0.156-0.025 0.312-0.074 0.463-0.131 0.404-0.428 0.733-0.814 0.906l-9.723 4.339c-0.41 0.183-0.88 0.173-1.281-0.028 0 0-7.385-3.693-9.1-4.55-0.953 1.161-3.204 3.906-4.389 5.35 1.867 1.422 8.188 6.239 8.188 6.239 0.377 0.287 0.592 0.731 0.592 1.193 0 0.11-0.013 0.221-0.037 0.332l-2.545 11.219c-0.147 0.653-0.71 1.129-1.379 1.166 0 0-9.282 0.521-11.734 0.658 0.242 2.221 1.002 9.217 1.194 10.98 2.018 0.197 12.547 1.227 12.547 1.227 0.507 0.049 0.953 0.352 1.187 0.804l6.881 13.312c0.113 0.217 0.168 0.453 0.168 0.688 0 0.4-0.16 0.795-0.465 1.086 0 0-6.955 6.635-8.65 8.254 0.65 0.699 2.264 2.436 4.016 4.32 10.194-1.068 19.812-4.002 28.512-8.43-0.669-0.389-1.329-0.79-1.98-1.213z" style="fill:url(#h)"/>
 </g>
</svg>
