<?xml version="1.0" encoding="utf-8"?>
<!-- Generator: Adobe Illustrator 19.0.0, SVG Export Plug-In . SVG Version: 6.00 Build 0)  -->
<svg xmlns="http://www.w3.org/2000/svg" xmlns:xlink="http://www.w3.org/1999/xlink" version="1.1" id="Capa_1" x="0px" y="0px" viewBox="-275 367 60 60" style="enable-background:new -275 367 60 60;" xml:space="preserve" width="512" height="512">
<style type="text/css">
	.st0{fill:#FFFFFF;fill-opacity:0;}
	.st1{fill:#80D6FA;}
	.st2{fill:#AAB1BA;}
	.st3{fill:#ECF4F7;}
	.st4{fill:#51565F;}
</style>
<title>reception-bell</title>
<desc>Created with Sketch.</desc>
<g id="Travel">
	
	<g id="reception-bell">
		<g id="fill" transform="translate(1.000000, 3.000000)">
			<path id="Combined-Shape" class="st1" d="M-221,411v4h-52v-4h6h42H-221z M-255,368c0-0.5,0.4-1,1-1h16c0.6,0,1,0.5,1,1v2     c0,0.5-0.4,1-1,1h-8h-8c-0.6,0-1-0.5-1-1V368z"/>
			<g id="Group-8" transform="translate(0.000000, 8.000000)">
				<path id="Fill-2" class="st2" d="M-217,409v4h-58v-4c0-1.1,0.9-2,2-2h52h2C-217.9,407-217,407.9-217,409"/>
				<path id="Fill-4" class="st3" d="M-246,367c11.6,0,21,9.4,21,21v15h-42v-15C-267,376.4-257.6,367-246,367"/>
			</g>
		</g>
		<path class="st4" d="M-216,424.5h-58c-0.3,0-0.5-0.2-0.5-0.5v-4c0-1.2,0.9-2.2,2-2.5V414c0-0.3,0.2-0.5,0.5-0.5h52    c0.3,0,0.5,0.2,0.5,0.5s-0.2,0.5-0.5,0.5h-51.5v3.5c0,0.3-0.2,0.5-0.5,0.5c-0.8,0-1.5,0.7-1.5,1.5v3.5h57V420    c0-0.8-0.7-1.5-1.5-1.5h-50c-0.3,0-0.5-0.2-0.5-0.5s0.2-0.5,0.5-0.5h50c1.4,0,2.5,1.1,2.5,2.5v4    C-215.5,424.3-215.7,424.5-216,424.5z M-224,410.5c-0.3,0-0.5-0.2-0.5-0.5v-11c0-11.3-9.2-20.5-20.5-20.5s-20.5,9.2-20.5,20.5v11    c0,0.3-0.2,0.5-0.5,0.5s-0.5-0.2-0.5-0.5v-11c0-11.7,9.4-21.2,21-21.5v-3h-7.5c-0.8,0-1.5-0.7-1.5-1.5v-2c0-0.8,0.7-1.5,1.5-1.5    h16c0.8,0,1.5,0.7,1.5,1.5v2c0,0.8-0.7,1.5-1.5,1.5h-4c-0.3,0-0.5-0.2-0.5-0.5s0.2-0.5,0.5-0.5h4c0.3,0,0.5-0.2,0.5-0.5v-2    c0-0.3-0.2-0.5-0.5-0.5h-16c-0.3,0-0.5,0.2-0.5,0.5v2c0,0.3,0.2,0.5,0.5,0.5h8c0.3,0,0.5,0.2,0.5,0.5v3.5c11.6,0.3,21,9.8,21,21.5    v11C-223.5,410.3-223.7,410.5-224,410.5z M-228.8,394.5c-0.2,0-0.4-0.1-0.5-0.4c-1-3.2-2.9-6-5.5-8.1c-0.2-0.2-0.3-0.5-0.1-0.7    c0.2-0.2,0.5-0.3,0.7-0.1c2.8,2.2,4.8,5.2,5.9,8.6c0.1,0.3-0.1,0.5-0.3,0.6C-228.7,394.5-228.7,394.5-228.8,394.5z M-222.5,384.5    c-0.2,0-0.3-0.1-0.4-0.2c-1.7-2.6-3.8-4.8-6.3-6.6c-0.2-0.2-0.3-0.5-0.1-0.7c0.2-0.2,0.5-0.3,0.7-0.1c2.6,1.9,4.8,4.2,6.6,6.9    c0.2,0.2,0.1,0.5-0.1,0.7C-222.4,384.5-222.5,384.5-222.5,384.5z M-238,384c-0.1,0-0.1,0-0.2,0c-0.6-0.3-1.3-0.5-1.9-0.7    c-0.3-0.1-0.4-0.4-0.3-0.6s0.4-0.4,0.6-0.3c0.7,0.2,1.4,0.5,2,0.8c0.3,0.1,0.4,0.4,0.2,0.7C-237.6,383.9-237.8,384-238,384z     M-216,383.8c-0.2,0-0.3-0.1-0.4-0.3c-2.7-5-6.7-9.2-11.5-12.1c-0.2-0.1-0.3-0.5-0.2-0.7c0.1-0.2,0.5-0.3,0.7-0.2    c5,3.1,9.1,7.4,11.8,12.5c0.1,0.2,0,0.5-0.2,0.7C-215.8,383.7-215.9,383.8-216,383.8z M-266.7,383.5c-0.1,0-0.2,0-0.3-0.1    c-0.2-0.2-0.3-0.5-0.1-0.7c1.9-2.6,4.2-4.8,6.9-6.6c0.2-0.2,0.5-0.1,0.7,0.1c0.2,0.2,0.1,0.5-0.1,0.7c-2.6,1.7-4.8,3.8-6.6,6.3    C-266.4,383.4-266.6,383.5-266.7,383.5z M-273.1,382.2c-0.1,0-0.2,0-0.3-0.1c-0.2-0.1-0.3-0.5-0.2-0.7c3.1-5,7.4-9.1,12.5-11.8    c0.2-0.1,0.5,0,0.7,0.2c0.1,0.2,0,0.5-0.2,0.7c-5,2.7-9.2,6.7-12.1,11.5C-272.7,382.1-272.9,382.2-273.1,382.2z"/>
	</g>
</g>
</svg>
